# xmcd
#
# Track frame offsets: 
#        150
#        13268
#        38008
#        58569
#        88336
#        108534
#        130358
#        167891
#        188877
#        224022
#        237884
#        257364
#        284634
#
# Disc length: 4054 seconds
#
# Revision: 0
# Processed by: cddbd v1.5.2PL0 Copyright (c) Steve Scherf et al.
# Submitted via: ExactAudioCopy v0.99pb4
#
DISCID=c40fd40d
DTITLE=Mavis Staples - Live: Hope at the Hideout
DYEAR=2008
DGENRE=Blues
TTITLE0=For What It's Worth
TTITLE1=Eyes On The Prize
TTITLE2=Down In Mississippi
TTITLE3=Wade In The Water
TTITLE4=Waiting For My Child
TTITLE5=This Little Light
TTITLE6=Why Am I Treated So Bad
TTITLE7=Freedom Highway
TTITLE8=We Shall Not Be Moved
TTITLE9=Circle Intro (Encore)
TTITLE10=Will The Circle Be Unbroken (Encore)
TTITLE11=On My Way (Encore)
TTITLE12=I'll Take You There (Encore)
EXTD=
EXTT0=
EXTT1=
EXTT2=
EXTT3=
EXTT4=
EXTT5=
EXTT6=
EXTT7=
EXTT8=
EXTT9=
EXTT10=
EXTT11=
EXTT12=
PLAYORDER=
